<?xml version="1.0" standalone="no"?>
<!DOCTYPE svg PUBLIC "-//W3C//DTD SVG 1.1//EN" "http://www.w3.org/Graphics/SVG/1.1/DTD/svg11.dtd">
<svg width="100%" height="100%" viewBox="0 0 1000 300" version="1.1" xmlns="http://www.w3.org/2000/svg" xmlns:xlink="http://www.w3.org/1999/xlink" xml:space="preserve" style="fill-rule:evenodd;clip-rule:evenodd;stroke-linejoin:round;stroke-miterlimit:1.41421;">
    <g id="Full Logo" transform="matrix(1,0,0,1,275.833,-4.86474)">
        <g id="Aurelia" transform="matrix(1,0,0,1,-1528.82,-2289.73)">
            <g id="A" transform="matrix(1,0,0,1,-436.516,1567.11)">
                <path d="M2079.52,951.411C2080.25,951.408 2080.99,951.394 2081.72,951.362C2083.27,951.293 2084.81,951.152 2086.35,950.937C2090.82,950.31 2095.2,949.058 2099.33,947.221C2104.44,944.949 2109.15,941.79 2113.2,937.932C2117.02,934.284 2120.25,930.017 2122.72,925.341C2124.81,921.375 2126.35,917.122 2127.28,912.734C2128.41,907.37 2128.63,901.813 2127.94,896.375C2127.3,891.394 2125.9,886.519 2123.77,881.969C2121.33,876.729 2117.94,871.936 2113.83,867.872C2109.5,863.597 2104.38,860.137 2098.79,857.732C2095.76,856.428 2092.59,855.434 2089.36,854.773C2086.33,854.153 2083.24,853.824 2080.15,853.785C2077.14,853.747 2074.13,853.981 2071.17,854.491C2067.81,855.07 2064.51,856.005 2061.34,857.276C2055.78,859.507 2050.65,862.776 2046.26,866.858C2041.96,870.862 2038.39,875.639 2035.77,880.902C2033.55,885.385 2032.02,890.209 2031.26,895.158C2030.42,900.682 2030.52,906.352 2031.58,911.841C2032.44,916.349 2033.95,920.731 2036.04,924.817C2038.45,929.524 2041.63,933.83 2045.42,937.525C2049.34,941.361 2053.91,944.53 2058.89,946.852C2062.88,948.716 2067.13,950.032 2071.47,950.752C2072.99,951.004 2074.53,951.184 2076.07,951.291C2076.9,951.349 2077.73,951.383 2078.57,951.402C2078.89,951.407 2079.2,951.41 2079.52,951.411ZM2130.39,924.01C2129.86,925.268 2129.28,926.506 2128.66,927.721C2125.84,933.237 2122.08,938.266 2117.59,942.542C2113.18,946.749 2108.07,950.221 2102.53,952.766C2097.89,954.896 2092.96,956.374 2087.92,957.145C2086.19,957.409 2084.45,957.591 2082.7,957.69C2081.88,957.737 2081.05,957.763 2080.23,957.776C2079.99,957.779 2079.75,957.78 2079.52,957.781C2078.69,957.778 2077.86,957.763 2077.03,957.726C2075.28,957.648 2073.54,957.488 2071.8,957.246C2066.74,956.537 2061.78,955.119 2057.11,953.042C2051.44,950.518 2046.2,947.028 2041.68,942.77C2037.09,938.444 2033.25,933.335 2030.37,927.721C2028.05,923.2 2026.37,918.36 2025.38,913.377C2024.2,907.413 2024.02,901.253 2024.82,895.227C2025.56,889.712 2027.13,884.315 2029.49,879.274C2032.3,873.251 2036.21,867.753 2040.97,863.109C2045.88,858.304 2051.7,854.428 2058.03,851.749C2061.37,850.337 2064.85,849.258 2068.4,848.532C2071.94,847.808 2075.55,847.434 2079.16,847.412C2082.78,847.389 2086.4,847.717 2089.96,848.398C2093.52,849.081 2097.02,850.118 2100.38,851.49C2106.75,854.093 2112.61,857.901 2117.59,862.649C2122.32,867.156 2126.24,872.5 2129.11,878.368C2129.56,879.294 2129.99,880.232 2130.39,881.182L2130.39,847.596L2136.64,847.596L2136.64,957.596L2130.39,957.596L2130.39,924.01Z" style="fill:rgb(237,44,136);"/>
            </g>
            <g id="U" transform="matrix(1,0,0,1,-436.516,1567.11)">
                <path d="M2256.39,927.919C2254.08,932.367 2251.18,936.505 2247.77,940.182C2244.86,943.332 2241.57,946.142 2238.01,948.534C2234.13,951.136 2229.91,953.239 2225.5,954.77C2221.84,956.04 2218.04,956.915 2214.19,957.38C2212.91,957.535 2211.64,957.644 2210.35,957.709C2209.64,957.745 2208.94,957.765 2208.23,957.776C2207.99,957.779 2207.75,957.78 2207.52,957.781C2206.8,957.779 2206.1,957.767 2205.38,957.74C2203.86,957.683 2202.34,957.563 2200.83,957.381C2196.4,956.847 2192.04,955.776 2187.86,954.197C2181.6,951.829 2175.78,948.319 2170.76,943.892C2167.2,940.744 2164.03,937.135 2161.39,933.178C2158.53,928.902 2156.28,924.221 2154.75,919.312C2153.62,915.699 2152.88,911.967 2152.54,908.198C2152.37,906.329 2152.31,904.454 2152.33,902.578L2152.33,847.596L2158.7,847.596L2158.7,902.614C2158.7,902.834 2158.7,903.054 2158.7,903.273C2158.7,903.483 2158.7,903.692 2158.7,903.901C2158.71,904.526 2158.72,905.15 2158.76,905.774C2158.83,907.209 2158.97,908.641 2159.17,910.064C2159.75,914.123 2160.86,918.104 2162.48,921.875C2164.75,927.199 2168.01,932.088 2172.01,936.268C2175.96,940.387 2180.63,943.807 2185.74,946.335C2190.25,948.562 2195.1,950.09 2200.07,950.848C2205.19,951.628 2210.44,951.601 2215.55,950.752C2219.58,950.081 2223.53,948.894 2227.27,947.223C2232.62,944.831 2237.52,941.455 2241.68,937.325C2245.64,933.389 2248.92,928.78 2251.36,923.752C2253.37,919.596 2254.79,915.16 2255.58,910.612C2255.89,908.882 2256.1,907.137 2256.22,905.386C2256.27,904.548 2256.31,903.71 2256.33,902.87L2256.33,902.57L2256.39,847.596L2262.64,847.596L2262.64,957.596L2256.39,957.596L2256.39,927.919Z" style="fill:rgb(205,15,126);"/>
            </g>
            <g id="R" transform="matrix(1,0,0,1,-436.516,1567.11)">
                <path d="M2284.72,900.123L2284.58,957.596L2278.33,957.596L2278.33,847.596L2284.58,847.596L2284.58,875.755C2285.36,874.331 2286.21,872.943 2287.11,871.596C2289.57,867.938 2292.49,864.589 2295.76,861.638C2300.54,857.328 2306.08,853.875 2312.05,851.461C2316.44,849.684 2321.06,848.47 2325.76,847.842C2327.38,847.627 2329,847.48 2330.63,847.401C2331.57,847.356 2332.51,847.336 2333.45,847.333L2333.47,853.858C2333.25,853.859 2333.04,853.86 2332.83,853.862C2332.62,853.865 2332.41,853.869 2332.2,853.874C2331.47,853.893 2330.74,853.924 2330.01,853.973C2328.47,854.075 2326.94,854.246 2325.42,854.486C2321.39,855.123 2317.44,856.251 2313.68,857.848C2308.47,860.067 2303.64,863.192 2299.5,867.062C2296.6,869.77 2294.04,872.84 2291.91,876.184C2289.72,879.615 2287.98,883.336 2286.77,887.222C2285.91,889.986 2285.32,892.831 2285,895.708C2284.83,897.175 2284.75,898.648 2284.72,900.123Z" style="fill:rgb(179,23,118);"/>
            </g>
            <g id="E" transform="matrix(1,0,0,1,-436.516,1567.11)">
                <path d="M2388.18,957.791L2384.65,957.78C2384.42,957.777 2384.18,957.774 2383.94,957.771C2383.23,957.755 2382.53,957.73 2381.82,957.69C2380.31,957.604 2378.8,957.456 2377.3,957.246C2373.12,956.661 2369.02,955.596 2365.09,954.075C2358.56,951.548 2352.54,947.764 2347.42,942.996C2342.39,938.319 2338.25,932.707 2335.27,926.522C2333.06,921.934 2331.49,917.04 2330.63,912.021C2329.59,906.027 2329.56,899.86 2330.51,893.854C2331.53,887.494 2333.67,881.326 2336.81,875.705C2340.26,869.528 2344.91,864.034 2350.42,859.595C2353.35,857.231 2356.53,855.168 2359.88,853.45C2362.98,851.862 2366.23,850.57 2369.58,849.598C2374.36,848.209 2379.32,847.478 2384.3,847.415C2389.86,847.345 2395.43,848.107 2400.77,849.694C2406.76,851.478 2412.44,854.295 2417.5,857.982C2422.85,861.888 2427.49,866.756 2431.14,872.292C2433.53,875.926 2435.49,879.844 2436.96,883.939C2438.47,888.137 2439.46,892.519 2439.91,896.958C2440.05,898.359 2440.14,899.765 2440.18,901.173C2440.18,901.529 2440.19,901.884 2440.19,902.239C2440.2,902.47 2440.2,902.713 2440.18,902.942C2440.16,903.061 2440.14,903.179 2440.12,903.296C2440.04,903.645 2439.9,903.981 2439.71,904.284C2439.33,904.894 2438.74,905.363 2438.06,905.601C2437.84,905.68 2437.6,905.734 2437.37,905.761C2437.25,905.774 2437.13,905.774 2437.01,905.781L2386.33,905.781L2386.33,899.411L2433.72,899.411C2433.61,897.681 2433.41,895.959 2433.11,894.251C2432.54,890.889 2431.6,887.587 2430.33,884.421C2428.5,879.859 2425.97,875.583 2422.86,871.773C2419.34,867.453 2415.08,863.74 2410.32,860.846C2406.42,858.479 2402.2,856.663 2397.79,855.471C2392.52,854.044 2387.01,853.52 2381.56,853.901C2378.91,854.086 2376.27,854.486 2373.69,855.1C2370.87,855.769 2368.12,856.691 2365.46,857.851C2359.89,860.287 2354.79,863.778 2350.49,868.078C2348.49,870.082 2346.66,872.26 2345.03,874.579C2342.99,877.479 2341.27,880.599 2339.91,883.87C2338.49,887.298 2337.46,890.89 2336.85,894.553C2336.36,897.521 2336.15,900.534 2336.2,903.543C2336.27,906.934 2336.68,910.318 2337.44,913.623C2338.32,917.407 2339.65,921.085 2341.4,924.553C2343.3,928.316 2345.69,931.829 2348.48,934.981C2351.08,937.905 2354.02,940.517 2357.23,942.744C2359.82,944.537 2362.58,946.08 2365.46,947.341C2368.49,948.663 2371.64,949.675 2374.87,950.357C2376.97,950.801 2379.11,951.105 2381.25,951.268C2382.4,951.355 2383.54,951.399 2384.69,951.41L2388.2,951.421C2388.2,953.544 2388.19,955.667 2388.18,957.791Z" style="fill:rgb(155,32,115);fill-rule:nonzero;"/>
            </g>
            <g id="L" transform="matrix(1,0,0,1,-436.516,1567.11)">
                <path d="M2488.51,957.781C2487.49,957.778 2486.47,957.747 2485.45,957.678C2483.3,957.533 2481.15,957.227 2479.05,956.738C2476.95,956.248 2474.88,955.573 2472.91,954.695C2470.47,953.611 2468.16,952.218 2466.11,950.517C2465.03,949.634 2464.03,948.669 2463.11,947.631C2461.95,946.33 2460.93,944.916 2460.05,943.412C2458.95,941.523 2458.09,939.498 2457.48,937.4C2457.03,935.838 2456.71,934.237 2456.53,932.621C2456.38,931.278 2456.31,929.927 2456.33,928.576L2456.33,794.888L2462.7,794.888C2462.7,839.464 2462.7,884.04 2462.7,928.616C2462.7,928.837 2462.7,929.058 2462.7,929.28C2462.71,930.155 2462.76,931.03 2462.86,931.9C2463.02,933.3 2463.3,934.687 2463.72,936.032C2464.22,937.616 2464.9,939.142 2465.77,940.559C2466.43,941.645 2467.2,942.666 2468.06,943.605C2468.74,944.355 2469.48,945.053 2470.27,945.693C2470.93,946.233 2471.63,946.733 2472.35,947.192C2472.97,947.587 2473.61,947.952 2474.26,948.287C2477.37,949.875 2480.79,950.784 2484.25,951.176C2485.67,951.337 2487.1,951.407 2488.52,951.411C2488.52,953.534 2488.51,955.657 2488.51,957.781Z" style="fill:rgb(143,36,117);fill-rule:nonzero;"/>
            </g>
            <g id="I" transform="matrix(1,0,0,1,-436.516,1567.11)">
                <path d="M2503.94,957.596L2503.94,847.596L2510.19,847.596L2510.19,957.596C2508.11,957.596 2506.03,957.596 2503.94,957.596ZM2503.97,809.596L2503.97,794.888L2510.17,794.888L2510.17,809.596L2503.97,809.596Z" style="fill:rgb(120,50,122);"/>
            </g>
            <g id="A1" transform="matrix(1,0,0,1,-436.516,1567.11)">
                <path d="M2581.52,951.411C2582.25,951.408 2582.99,951.394 2583.72,951.362C2585.27,951.293 2586.81,951.152 2588.35,950.937C2592.82,950.31 2597.2,949.058 2601.33,947.221C2605.99,945.147 2610.32,942.336 2614.12,938.927C2618.34,935.133 2621.9,930.607 2624.58,925.602C2626.74,921.562 2628.33,917.218 2629.28,912.734C2630.43,907.269 2630.64,901.605 2629.9,896.069C2629.24,891.096 2627.8,886.234 2625.65,881.701C2623.17,876.476 2619.75,871.706 2615.62,867.666C2611.26,863.416 2606.12,859.985 2600.52,857.616C2597.57,856.369 2594.49,855.414 2591.36,854.773C2588.22,854.132 2585.03,853.802 2581.83,853.782C2578.63,853.762 2575.42,854.051 2572.27,854.654C2569.12,855.258 2566.03,856.175 2563.07,857.387C2557.43,859.69 2552.24,863.06 2547.84,867.26C2543.65,871.248 2540.18,875.977 2537.64,881.168C2535.44,885.667 2533.94,890.505 2533.22,895.461C2532.43,900.888 2532.54,906.452 2533.58,911.84C2534.48,916.543 2536.08,921.106 2538.31,925.341C2540.78,930.017 2544.01,934.284 2547.84,937.932C2551.74,941.653 2556.26,944.726 2561.16,946.977C2565.26,948.86 2569.62,950.167 2574.08,950.848C2575.61,951.082 2577.15,951.242 2578.69,951.33C2579.42,951.372 2580.15,951.395 2580.88,951.407C2581.1,951.409 2581.3,951.41 2581.52,951.411ZM2632.39,924.01C2631.86,925.268 2631.28,926.506 2630.66,927.721C2627.79,933.335 2623.94,938.444 2619.35,942.77C2614.83,947.028 2609.6,950.518 2603.92,953.042C2599.25,955.119 2594.29,956.537 2589.23,957.246C2587.5,957.488 2585.75,957.648 2584,957.726C2583.17,957.763 2582.34,957.778 2581.52,957.781C2580.69,957.778 2579.86,957.763 2579.03,957.726C2577.28,957.648 2575.54,957.488 2573.8,957.246C2568.74,956.537 2563.78,955.119 2559.11,953.042C2553.34,950.473 2548.01,946.903 2543.44,942.542C2538.96,938.266 2535.2,933.237 2532.37,927.721C2530,923.098 2528.3,918.14 2527.32,913.039C2526.2,907.181 2526.03,901.138 2526.82,895.226C2527.57,889.601 2529.2,884.099 2531.63,878.971C2534.48,872.966 2538.42,867.493 2543.2,862.879C2548.15,858.102 2553.99,854.26 2560.34,851.619C2563.8,850.183 2567.4,849.102 2571.07,848.398C2574.51,847.739 2578.01,847.411 2581.52,847.411C2585.02,847.411 2588.52,847.739 2591.96,848.398C2595.63,849.102 2599.23,850.183 2602.69,851.619C2609.04,854.26 2614.88,858.102 2619.83,862.878C2624.53,867.414 2628.42,872.783 2631.26,878.669C2631.66,879.497 2632.03,880.335 2632.39,881.182L2632.39,847.596L2638.64,847.596L2638.64,957.596C2638.63,957.717 2632.39,957.596 2632.39,957.596L2632.39,924.01Z" style="fill:rgb(110,77,155);"/>
            </g>
        </g>
        <g id="Icon" transform="matrix(0.98067,0.19567,-0.19567,0.98067,-847.617,-644.194)">
            <g transform="matrix(0.98067,-0.19567,0.19567,0.98067,-1111.46,141.794)">
                <path d="M1904.51,793.676L1879.99,810.041L1854.73,772.186L1879.25,755.821L1904.51,793.676Z" style="fill:url(#_Linear1);"/>
            </g>
            <g transform="matrix(0.98067,-0.19567,0.19567,0.98067,687.732,524.632)">
                <path d="M234.942,179.915L276.837,242.695L226.93,276L185.035,213.219L177.726,202.268L227.634,168.963L234.942,179.915Z" style="fill:url(#_Linear2);"/>
            </g>
            <g transform="matrix(0.98067,-0.19567,0.19567,0.98067,687.732,524.632)">
                <path d="M172.083,221.862L181.307,235.684L143.32,261.034L126.787,236.26L135.086,230.722L164.775,210.91L172.083,221.862Z" style="fill:url(#_Linear3);"/>
            </g>
            <g transform="matrix(0.98067,-0.19567,0.19567,0.98067,687.732,524.632)">
                <path d="M255.696,150.236L266.351,143.126L282.883,167.9L258.36,184.265L249.136,170.443L263.004,161.188L255.696,150.236ZM249.136,170.443L241.828,159.491L255.696,150.236L263.004,161.188L249.136,170.443Z" style="fill:url(#_Linear4);"/>
            </g>
            <g transform="matrix(0.98067,-0.19567,0.19567,0.98067,687.732,524.632)">
                <path d="M83.746,153.788L75.448,159.326L50.186,121.471L88.173,96.121L105.88,122.656L76.192,142.468L105.88,122.656L113.435,133.977L83.746,153.788Z" style="fill:url(#_Linear5);"/>
            </g>
            <g transform="matrix(0.98067,-0.19567,0.19567,0.98067,687.732,524.632)">
                <path d="M168.74,80.708L176.294,92.029L126.386,125.334L118.832,114.013L77.329,51.821L127.237,18.516L168.74,80.708Z" style="fill:url(#_Linear6);"/>
            </g>
            <g transform="matrix(0.98067,-0.19567,0.19567,0.98067,687.732,524.632)">
                <path d="M204.356,73.303L190.488,82.557L182.933,71.237L165.226,44.702L189.749,28.337L215.011,66.192L204.356,73.303Z" style="fill:url(#_Linear7);"/>
            </g>
            <g transform="matrix(0.98067,-0.19567,0.19567,0.98067,687.732,524.632)">
                <path d="M142.395,241.674L135.086,230.722L164.775,210.91L172.083,221.862L142.395,241.674Z" style="fill:rgb(113,72,150);"/>
            </g>
            <g transform="matrix(0.98067,-0.19567,0.19567,0.98067,687.732,524.632)">
                <path d="M249.136,170.443L241.828,159.491L255.696,150.236L263.004,161.188L249.136,170.443Z" style="fill:rgb(111,71,149);"/>
            </g>
            <g transform="matrix(0.98067,-0.19567,0.19567,0.98067,687.732,524.632)">
                <path d="M83.746,153.788L76.192,142.468L105.88,122.656L113.435,133.977L83.746,153.788Z" style="fill:rgb(136,81,159);"/>
            </g>
            <g transform="matrix(0.98067,-0.19567,0.19567,0.98067,687.732,524.632)">
                <path d="M190.488,82.557L182.933,71.237L196.802,61.982L204.356,73.303L190.488,82.557Z" style="fill:rgb(133,80,158);"/>
            </g>
            <g transform="matrix(0.98067,-0.19567,0.19567,0.98067,687.732,524.632)">
                <path d="M234.942,179.915L185.035,213.219L177.726,202.268L227.634,168.963L234.942,179.915Z" style="fill:rgb(141,22,106);"/>
            </g>
            <g transform="matrix(0.98067,-0.19567,0.19567,0.98067,687.732,524.632)">
                <path d="M168.74,80.708L176.294,92.029L126.386,125.334L118.832,114.013L168.74,80.708Z" style="fill:rgb(167,13,111);"/>
            </g>
            <g transform="matrix(0.0838394,0.0838394,-0.0838394,0.0838394,897.184,285.926)">
                <rect x="1003" y="2520" width="143.131" height="143.131" style="fill:rgb(158,97,173);"/>
            </g>
            <g transform="matrix(0.0838394,0.0838394,-0.0838394,0.0838394,980.184,441.926)">
                <rect x="1003" y="2520" width="143.131" height="143.131" style="fill:rgb(128,83,163);"/>
            </g>
            <g transform="matrix(1,2.77556e-17,-1.38778e-16,1,-196.486,-2023.23)">
                <path d="M1015.85,2781.73L963.105,2728.59L1150.79,2540.51L1205.31,2592.28L1015.85,2781.73Z" style="fill:url(#_Linear8);"/>
            </g>
        </g>
    </g>
    <defs>
        <linearGradient id="_Linear1" x1="0" y1="0" x2="1" y2="0" gradientUnits="userSpaceOnUse" gradientTransform="matrix(311.539,311.539,-311.539,311.539,1661.51,677.648)"><stop offset="0%" style="stop-color:rgb(192,111,187);stop-opacity:1"/><stop offset="100%" style="stop-color:rgb(110,77,155);stop-opacity:1"/></linearGradient>
        <linearGradient id="_Linear2" x1="0" y1="0" x2="1" y2="0" gradientUnits="userSpaceOnUse" gradientTransform="matrix(-168.486,-248.455,240.79,-173.85,250.023,259.328)"><stop offset="0%" style="stop-color:rgb(110,77,155);stop-opacity:1"/><stop offset="14%" style="stop-color:rgb(119,50,122);stop-opacity:1"/><stop offset="29%" style="stop-color:rgb(179,23,119);stop-opacity:1"/><stop offset="84%" style="stop-color:rgb(205,15,126);stop-opacity:1"/><stop offset="100%" style="stop-color:rgb(237,44,137);stop-opacity:1"/></linearGradient>
        <linearGradient id="_Linear3" x1="0" y1="0" x2="1" y2="0" gradientUnits="userSpaceOnUse" gradientTransform="matrix(311.539,398.641,-311.539,398.641,-27.9866,-136.75)"><stop offset="0%" style="stop-color:rgb(192,111,187);stop-opacity:1"/><stop offset="100%" style="stop-color:rgb(110,77,155);stop-opacity:1"/></linearGradient>
        <linearGradient id="_Linear4" x1="0" y1="0" x2="1" y2="0" gradientUnits="userSpaceOnUse" gradientTransform="matrix(379.008,311.539,-379.008,311.539,-95.31,-49.8356)"><stop offset="0%" style="stop-color:rgb(192,111,187);stop-opacity:1"/><stop offset="100%" style="stop-color:rgb(110,77,155);stop-opacity:1"/></linearGradient>
        <linearGradient id="_Linear5" x1="0" y1="0" x2="1" y2="0" gradientUnits="userSpaceOnUse" gradientTransform="matrix(353.797,311.539,-353.797,311.539,-38.5899,-49.8356)"><stop offset="0%" style="stop-color:rgb(192,111,187);stop-opacity:1"/><stop offset="100%" style="stop-color:rgb(110,77,155);stop-opacity:1"/></linearGradient>
        <linearGradient id="_Linear6" x1="0" y1="0" x2="1" y2="0" gradientUnits="userSpaceOnUse" gradientTransform="matrix(-168.959,-249.473,241.466,-174.562,266.435,289.783)"><stop offset="0%" style="stop-color:rgb(110,77,155);stop-opacity:1"/><stop offset="14%" style="stop-color:rgb(119,50,122);stop-opacity:1"/><stop offset="29%" style="stop-color:rgb(179,23,119);stop-opacity:1"/><stop offset="84%" style="stop-color:rgb(205,15,126);stop-opacity:1"/><stop offset="100%" style="stop-color:rgb(237,44,137);stop-opacity:1"/></linearGradient>
        <linearGradient id="_Linear7" x1="0" y1="0" x2="1" y2="0" gradientUnits="userSpaceOnUse" gradientTransform="matrix(311.539,375.658,-311.539,375.658,-27.9866,-65.9245)"><stop offset="0%" style="stop-color:rgb(192,111,187);stop-opacity:1"/><stop offset="100%" style="stop-color:rgb(110,77,155);stop-opacity:1"/></linearGradient>
        <linearGradient id="_Linear8" x1="0" y1="0" x2="1" y2="0" gradientUnits="userSpaceOnUse" gradientTransform="matrix(191.237,-188.333,188.333,191.237,990.204,2756.77)"><stop offset="0%" style="stop-color:rgb(110,77,155);stop-opacity:1"/><stop offset="14%" style="stop-color:rgb(119,50,122);stop-opacity:1"/><stop offset="53%" style="stop-color:rgb(179,23,119);stop-opacity:1"/><stop offset="79%" style="stop-color:rgb(205,15,126);stop-opacity:1"/><stop offset="100%" style="stop-color:rgb(237,44,137);stop-opacity:1"/></linearGradient>
    </defs>
</svg>
